HIERARCHY
ROOT Hips
{
	OFFSET 0.00000 0.00000 0.00000
	CHANNELS 6 Xposition Yposition Zposition Zrotation Yrotation Xrotation 
	JOINT LHipJoint
	{
		OFFSET 0 0 0
		CHANNELS 3 Zrotation Yrotation Xrotation
		JOINT LeftHip
		{
			OFFSET 1.17584 -1.63585 1.00361
			CHANNELS 3 Zrotation Yrotation Xrotation
			JOINT LeftKnee
			{
				OFFSET 2.23889 -6.15131 0.00000
				CHANNELS 3 Zrotation Yrotation Xrotation
				JOINT LeftAnkle
				{
					OFFSET 2.65161 -7.28525 0.00000
					CHANNELS 3 Zrotation Yrotation Xrotation
					JOINT LeftToe
					{
						OFFSET 0.24898 -0.68407 1.57235
						CHANNELS 3 Zrotation Yrotation Xrotation
						End Site
						{
							OFFSET 0.00000 -0.00000 0.85838
						}
					}
				}
			}
		}
	}
	JOINT RHipJoint
	{
		OFFSET 0 0 0
		CHANNELS 3 Zrotation Yrotation Xrotation
		JOINT RightHip
		{
			OFFSET -1.15592 -1.63585 1.00361
			CHANNELS 3 Zrotation Yrotation Xrotation
			JOINT RightKnee
			{
				OFFSET -2.34071 -6.43104 0.00000
				CHANNELS 3 Zrotation Yrotation Xrotation
				JOINT RightAnkle
				{
					OFFSET -2.59113 -7.11908 0.00000
					CHANNELS 3 Zrotation Yrotation Xrotation
					JOINT RightToe
					{
						OFFSET -0.17867 -0.49089 1.70981
						CHANNELS 3 Zrotation Yrotation Xrotation
						End Site
						{
							OFFSET -0.00000 -0.00000 0.89861
						}
					}
				}
			}
		}
	}
	JOINT lowerback
	{
		OFFSET 0 0 0
		CHANNELS 3 Zrotation Yrotation Xrotation
		JOINT Chest
		{
			OFFSET -0.02255 1.90764 -0.16605
			CHANNELS 3 Zrotation Yrotation Xrotation
			JOINT Chest2
			{
				OFFSET -0.00365 1.92150 -0.04898
				CHANNELS 3 Zrotation Yrotation Xrotation
				JOINT lowerneck
				{
					OFFSET 0 0 0
					CHANNELS 3 Zrotation Yrotation Xrotation
					JOINT Neck
					{
						OFFSET 0.00372 1.59170 0.08694
						CHANNELS 3 Zrotation Yrotation Xrotation
						JOINT Head
						{
							OFFSET 0.12558 1.58643 -0.08078
							CHANNELS 3 Zrotation Yrotation Xrotation
							End Site
							{
								OFFSET 0.04211 1.60835 -0.03803
							}
						}
					}
				}
				JOINT LeftCollar
				{
					OFFSET 0 0 0
					CHANNELS 3 Zrotation Yrotation Xrotation
					JOINT LeftShoulder
					{
						OFFSET 3.69324 0.96316 0.19077
CHANNELS 3 Zrotation Xrotation Yrotation
						JOINT LeftElbow
						{
OFFSET 0 -4.877960 -0.000000
CHANNELS 3 Zrotation Xrotation Yrotation
							JOINT LeftWrist
							{
OFFSET 0 -3.231690 0.000000
CHANNELS 3 Zrotation Xrotation Yrotation
								JOINT lhand
								{
									OFFSET 0 0 0
CHANNELS 3 Zrotation Xrotation Yrotation
									JOINT LFingers
									{
OFFSET 0 -0.731320 0.000000
CHANNELS 3 Zrotation Xrotation Yrotation
										End Site
										{
OFFSET 0 -0.589610 0.000000
										}
									}
								}
								JOINT LThumb
								{
OFFSET 0 0.000000 0.000000
CHANNELS 3 Zrotation Xrotation Yrotation
									End Site
									{
OFFSET 0 -0.598610 0.598610
									}
								}
							}
						}
					}
				}
				JOINT RightCollar
				{
					OFFSET 0 0 0
					CHANNELS 3 Zrotation Yrotation Xrotation
					JOINT RightShoulder
					{
						OFFSET -3.66103 0.75145 0.08281
CHANNELS 3 Zrotation Xrotation Yrotation
						JOINT RightElbow
						{
OFFSET 0 -4.914300 0.000000
CHANNELS 3 Zrotation Xrotation Yrotation
							JOINT RightWrist
							{
OFFSET 0 -3.290930 0.000000
CHANNELS 3 Zrotation Xrotation Yrotation
								JOINT rhand
								{
									OFFSET 0 0 0
CHANNELS 3 Zrotation Xrotation Yrotation
									JOINT RFingers
									{
OFFSET 0 -0.545120 0.000000
CHANNELS 3 Zrotation Xrotation Yrotation
										End Site
										{
OFFSET 0 -0.439490 0.000000
										}
									}
								}
								JOINT RThumb
								{
OFFSET 0 0.000000 0.000000
CHANNELS 3 Zrotation Xrotation Yrotation
									End Site
									{
OFFSET 0 -0.446200 0.446200
									}
								}
							}
						}
					}
				}
			}
		}
	}
}
MOTION
Frames: 7
Frame Time: 0.008333333333333333
7.307317 14.924689 1.556289 208.851197 -65.180286 558.539185 0.000000 0.000000 0.000000 17.241379 -4.168948 -95.895494 6.694424 15.048869 47.672167 0.142453 -2.562876 -6.753813 3.061998 -10.793925 -31.588927 0.000000 0.000000 0.000000 21.074768 2.638781 -76.142473 -15.982614 -19.597690 78.173553 0.656147 21.544954 -9.502169 -0.752716 5.540975 -15.458260 -2.707810 -0.825667 15.737459 -5.068888 -2.226413 7.108342 -3.423469 -1.321339 -1.382696 1.639591 7.664454 -6.261209 -2.440883 9.612461 -17.927312 -1.269365 4.474765 -4.670307 0.000000 0.000000 0.000000 49.518749 -51.387529 -19.635563 6.957626 -11.849430 0.723017 19.069561 -6.698801 11.968168 0.000000 0.000000 0.000000 -7.125000 0.000000 0.000000 -5.662426 17.376570 -3.732050 0.000000 0.000000 0.000000 -159.620766 -66.742193 -84.254383 -36.066069 -45.555484 -15.570632 -19.265456 -35.530982 19.154711 0.000000 0.000000 0.000000 7.125000 0.000000 0.000000 8.927700 49.970668 -1.100413
7.427333 13.909558 1.756541 209.031835 -60.663673 555.610663 0.000000 0.000000 0.000000 17.294061 0.593010 -106.446215 16.538012 19.698606 79.825862 -0.001857 -9.520613 -6.648549 2.873732 -10.485576 -30.566228 0.000000 0.000000 0.000000 18.449350 1.082783 -88.663465 -23.271949 -19.737871 99.608170 0.733177 21.674629 -8.872120 -0.263731 3.281723 -9.065777 -2.322319 -0.716645 17.810626 -5.111672 -2.254595 7.784449 -3.656586 -1.380302 -1.767182 1.651084 8.765403 -5.343839 -4.243703 10.955645 -18.266996 -1.952302 5.245416 -4.826133 0.000000 0.000000 0.000000 48.669871 -49.269970 -17.398417 7.445196 -12.649602 0.826397 21.978989 -12.187914 8.620829 0.000000 0.000000 0.000000 -7.125000 0.000000 0.000000 -3.536790 20.702859 -2.062349 0.000000 0.000000 0.000000 -158.710460 -65.876508 -82.976183 -45.479597 -50.994872 -22.612672 -19.510385 -35.813037 19.860323 0.000000 0.000000 0.000000 7.125000 0.000000 0.000000 8.915594 50.734691 -1.268535
7.431528 12.588663 1.908377 203.975190 -56.392104 556.085903 0.000000 0.000000 0.000000 14.409433 4.773519 -112.583267 26.265438 19.018726 108.618788 -0.909042 -17.519759 0.418741 3.124231 -10.875650 -31.881092 0.000000 0.000000 0.000000 14.783737 -2.875831 -100.470339 -28.103379 -18.343136 114.343151 1.835601 25.854438 -2.698756 -0.010505 -0.653432 1.795570 -4.519159 -0.028802 19.946182 -5.368688 -2.040080 7.850114 -2.698629 -1.359929 -2.727844 2.443085 9.739751 -5.102935 -5.759925 12.100825 -18.138847 -2.597444 5.843577 -4.626498 0.000000 0.000000 0.000000 43.893066 -45.059915 -22.970395 7.959695 -13.487492 0.942721 26.272756 -22.622461 6.755433 0.000000 0.000000 0.000000 -7.125000 0.000000 0.000000 -0.360885 22.454007 -0.195828 0.000000 0.000000 0.000000 -147.852931 -65.714345 -71.916498 -62.832696 -56.996905 -36.712352 -18.643012 -34.871852 20.059853 0.000000 0.000000 0.000000 7.125000 0.000000 0.000000 9.829224 50.796074 -1.415356
7.306449 10.925664 1.975885 201.198229 -55.483867 553.978696 0.000000 0.000000 0.000000 10.386359 7.293080 -113.980366 31.317263 16.598165 125.015236 -1.906723 -28.335486 -6.380942 0.841825 -5.851807 -16.355257 0.000000 0.000000 0.000000 14.395496 -8.949725 -109.110187 -30.720197 -16.984190 122.947498 2.502210 28.662383 -0.369500 -0.000782 -0.182250 0.500791 -4.484699 -0.036327 22.458350 -4.922408 -2.274211 7.901107 -2.146789 -1.488327 -3.939016 3.052236 10.259340 -4.937435 -6.736069 12.531046 -19.945358 -2.802032 6.028668 -4.571768 0.000000 0.000000 0.000000 36.669654 -40.989791 -26.701515 8.349215 -14.117371 1.035609 34.437620 -30.399676 8.556786 0.000000 0.000000 0.000000 -7.125000 0.000000 0.000000 5.385669 19.663570 3.274290 0.000000 0.000000 0.000000 -130.399759 -61.887566 -54.191576 -88.421891 -59.986313 -58.633470 -19.975375 -35.652100 22.450644 0.000000 0.000000 0.000000 7.125000 0.000000 0.000000 9.373137 53.470158 -1.965971
7.181276 9.314799 1.992329 199.680653 -53.660216 551.834603 0.000000 0.000000 0.000000 2.141142 20.651595 -123.434916 35.156692 13.196927 139.875482 -1.308740 -33.690258 -17.174336 1.425554 -7.549364 -21.353829 0.000000 0.000000 0.000000 13.912726 -13.836886 -113.613137 -33.118118 -15.226384 131.583120 1.937982 32.629183 -12.104968 -0.175991 2.671015 -7.365959 -4.496265 1.322862 24.309205 -4.591290 -0.737016 7.885769 -2.181381 -0.767411 -4.859921 2.870830 9.853961 -5.546181 -5.952303 11.677611 -23.600319 -2.633613 5.361232 -5.729766 0.000000 0.000000 0.000000 29.710793 -37.034003 -35.393132 11.181399 -18.562556 1.835811 46.081509 -48.119364 15.646207 0.000000 0.000000 0.000000 -7.125000 0.000000 0.000000 11.853472 8.301318 10.297354 0.000000 0.000000 0.000000 -113.679028 -52.366423 -39.461266 -114.750539 -57.533647 -81.254714 -21.731378 -36.028981 25.160230 0.000000 0.000000 0.000000 7.125000 0.000000 0.000000 8.675658 56.592977 -2.478018
7.025174 8.152857 2.003934 196.223713 -50.952853 548.939040 0.000000 0.000000 0.000000 -18.579354 48.501556 -139.743438 37.354349 10.096382 150.709081 -4.115722 -50.877597 -23.702035 2.493994 -9.824875 -28.413163 0.000000 0.000000 0.000000 13.278141 -26.496966 -116.019598 -35.381980 -12.939423 140.856454 0.904309 38.059683 -23.205740 -1.198516 6.940084 -19.540601 -4.119159 3.491148 28.967415 -4.744030 1.452108 8.445625 -3.341875 0.166380 -6.456561 0.248149 8.131989 -2.952038 -4.562556 8.920141 -30.895634 -2.053013 3.821741 -8.974391 0.000000 0.000000 0.000000 23.081001 -30.654467 -43.014300 15.845753 -25.310098 3.580249 63.721300 -59.618488 20.922053 0.000000 0.000000 0.000000 -7.125000 0.000000 0.000000 20.406361 -8.641156 24.745667 0.000000 0.000000 0.000000 -101.990192 -43.575366 -30.463818 -130.426854 -52.817342 -94.165089 -21.866847 -30.828077 26.577534 0.000000 0.000000 0.000000 7.125000 0.000000 0.000000 9.195240 58.070278 -2.957369
6.935486 7.963280 2.058095 194.953459 -48.737183 545.083679 0.000000 0.000000 0.000000 -17.573071 57.563680 -135.568215 37.667774 9.526033 152.544763 -2.224658 -53.890005 -32.813712 3.222872 -11.046758 -32.438379 0.000000 0.000000 0.000000 8.680733 -31.243141 -110.639462 -35.644334 -12.619021 142.041210 -0.166288 40.904454 -29.918744 -2.595571 10.007452 -29.002864 -1.593099 4.128961 32.343949 -4.939275 2.586003 8.477152 -5.168987 0.639317 -7.194972 -0.126032 6.917631 -1.546551 -3.777618 7.140314 -32.635407 -1.707323 2.846297 -9.973057 0.000000 0.000000 0.000000 19.660997 -32.692641 -48.148782 12.629335 -20.737085 2.323629 75.668895 -78.931280 24.734405 0.000000 0.000000 0.000000 -7.125000 0.000000 0.000000 26.152474 -27.073152 37.856384 0.000000 0.000000 0.000000 -89.941289 -47.875610 -18.046082 -133.853143 -51.316705 -96.868938 -19.306769 -22.351966 26.023656 0.000000 0.000000 0.000000 7.125000 0.000000 0.000000 11.654500 56.952442 -3.446428
